<svg width="257" height="260" viewBox="0 0 257 260" fill="none" xmlns="http://www.w3.org/2000/svg">
<path d="M101.26 7.41602C119.41 7.41602 137.56 7.41602 156.26 7.41602C157.409 34.9906 157.409 34.9906 157.465 46.9172C157.475 48.2961 157.485 49.675 157.495 51.0539C157.522 54.7211 157.543 58.3883 157.563 62.0555C157.586 65.9793 157.613 69.9031 157.639 73.827C157.683 80.4371 157.724 87.0473 157.763 93.6575C157.802 100.323 157.843 106.989 157.888 113.655C157.893 114.469 157.899 115.283 157.904 116.122C157.915 117.763 157.926 119.403 157.937 121.043C158.007 131.509 158.074 141.975 158.123 152.441C158.127 153.217 158.131 153.994 158.135 154.794C158.149 157.878 158.163 160.961 158.177 164.045C158.218 173.165 158.283 182.285 158.387 191.404C158.439 196.181 158.475 200.958 158.509 205.735C158.527 207.891 158.553 210.046 158.587 212.202C158.942 235.304 158.942 235.304 151.073 244.291C143.674 250.88 136.673 252.093 126.854 251.799C119.002 250.962 112.486 247.348 107.26 241.416C103.43 235.49 102.149 229.848 102.102 222.821C102.092 221.704 102.082 220.588 102.072 219.437C102.066 218.218 102.061 216.999 102.055 215.744C102.045 214.45 102.035 213.155 102.025 211.822C101.998 208.257 101.977 204.692 101.957 201.126C101.935 197.337 101.907 193.548 101.88 189.759C101.83 182.469 101.785 175.179 101.742 167.889C101.708 162.045 101.671 156.202 101.633 150.359C101.324 102.711 101.115 55.0651 101.26 7.41602Z" fill="#FCFCFC"/>
<path d="M8.25985 7.41602C26.4098 7.41602 44.5598 7.41602 63.2598 7.41602C63.6539 40.735 63.9796 74.054 64.2293 107.374C64.2498 110.091 64.2706 112.808 64.2918 115.524C64.4222 132.221 64.5328 148.918 64.5881 165.616C64.6108 172.368 64.6415 179.121 64.6942 185.873C64.743 192.265 64.7675 198.656 64.7737 205.048C64.78 207.404 64.7949 209.76 64.8189 212.117C64.8505 215.353 64.8507 218.587 64.8433 221.824C64.8598 222.756 64.8762 223.688 64.8931 224.649C64.8192 232.476 62.3606 239.051 57.0138 244.854C56.2906 245.369 55.5674 245.885 54.8223 246.416C53.7415 247.22 53.7415 247.22 52.6388 248.041C45.2961 252.285 37.5207 252.254 29.2598 251.416C20.5291 248.686 14.8947 243.196 10.2598 235.416C9.24235 232.267 9.10878 229.323 9.05552 226.025C9.02591 224.377 9.02591 224.376 8.9957 222.695C8.97918 221.489 8.96266 220.284 8.94564 219.042C8.92498 217.763 8.90432 216.485 8.88304 215.168C8.82692 211.628 8.77798 208.088 8.73115 204.548C8.70108 202.294 8.66942 200.039 8.63744 197.785C8.12917 161.537 8.1402 125.289 8.18782 89.0386C8.19935 80.099 8.20458 71.1594 8.20953 62.2198C8.21975 43.9519 8.23796 25.684 8.25985 7.41602Z" fill="#FDFDFD"/>
<path d="M204.26 45.416C215.81 45.416 227.36 45.416 239.26 45.416C239.327 69.4334 239.383 93.4507 239.415 117.468C239.43 128.62 239.452 139.771 239.486 150.923C239.516 160.642 239.535 170.361 239.542 180.08C239.546 185.227 239.555 190.374 239.577 195.52C239.597 200.365 239.603 205.209 239.599 210.053C239.6 211.831 239.606 213.609 239.617 215.386C239.632 217.815 239.628 220.243 239.62 222.671C239.629 223.374 239.638 224.076 239.647 224.799C239.597 230.223 238.227 234.238 234.576 238.279C233.997 238.758 233.418 239.236 232.822 239.729C232.246 240.22 231.67 240.711 231.076 241.217C227.113 243.833 222.896 243.73 218.26 243.416C212.214 241.613 208.73 238.54 205.26 233.416C204.082 229.884 204.124 226.706 204.139 223.032C204.138 222.274 204.138 221.516 204.137 220.735C204.135 218.188 204.141 215.64 204.146 213.093C204.146 211.27 204.146 209.447 204.146 207.624C204.145 202.667 204.151 197.711 204.158 192.755C204.164 187.578 204.165 182.401 204.166 177.224C204.169 167.417 204.177 157.611 204.188 147.804C204.199 136.641 204.204 125.478 204.209 114.315C204.22 91.3486 204.238 68.3823 204.26 45.416Z" fill="#F82226"/>
<path d="M192.26 7.41602C210.41 7.41602 228.56 7.41602 247.26 7.41602C247.654 40.735 247.979 74.054 248.229 107.374C248.25 110.091 248.27 112.808 248.292 115.524C248.422 132.221 248.533 148.918 248.588 165.616C248.611 172.368 248.641 179.121 248.694 185.873C248.743 192.265 248.767 198.656 248.773 205.048C248.78 207.404 248.795 209.76 248.819 212.117C248.85 215.353 248.851 218.587 248.843 221.824C248.86 222.756 248.876 223.688 248.893 224.649C248.819 232.476 246.36 239.051 241.014 244.854C240.29 245.369 239.567 245.885 238.822 246.416C237.741 247.22 237.741 247.22 236.639 248.041C229.288 252.289 221.528 252.239 213.26 251.416C206.529 249.422 200.274 245.24 196.26 239.416C192.832 232.215 192.788 225.607 192.75 217.715C192.733 216.334 192.715 214.954 192.696 213.573C192.648 209.82 192.619 206.066 192.594 202.313C192.57 199.12 192.536 195.927 192.501 192.734C192.126 157.335 192.14 121.933 192.188 86.532C192.199 77.8632 192.204 69.1944 192.209 60.5256C192.22 42.8224 192.238 25.1192 192.26 7.41602ZM204.26 45.416C204.192 69.4334 204.137 93.4507 204.104 117.468C204.089 128.62 204.068 139.771 204.033 150.923C204.003 160.642 203.984 170.361 203.977 180.08C203.973 185.227 203.964 190.374 203.942 195.52C203.922 200.365 203.916 205.209 203.92 210.053C203.919 211.831 203.914 213.609 203.902 215.386C203.887 217.815 203.891 220.243 203.899 222.671C203.89 223.374 203.881 224.076 203.872 224.799C203.922 230.223 205.292 234.238 208.943 238.279C209.811 238.997 209.811 238.997 210.697 239.729C211.273 240.22 211.85 240.711 212.443 241.217C216.406 243.833 220.623 243.73 225.26 243.416C231.305 241.613 234.789 238.54 238.26 233.416C239.437 229.884 239.395 226.706 239.38 223.032C239.381 221.895 239.381 221.895 239.382 220.735C239.384 218.188 239.379 215.64 239.373 213.093C239.373 211.27 239.373 209.447 239.374 207.624C239.374 202.667 239.368 197.711 239.361 192.755C239.355 187.578 239.354 182.401 239.353 177.224C239.35 167.417 239.342 157.611 239.332 147.804C239.32 136.641 239.315 125.478 239.31 114.315C239.3 91.3486 239.281 68.3823 239.26 45.416C227.71 45.416 216.16 45.416 204.26 45.416Z" fill="#FCFCFC"/>
<path d="M112.26 93.416C123.81 93.416 135.36 93.416 147.26 93.416C147.35 111.01 147.424 128.604 147.467 146.198C147.487 154.368 147.515 162.537 147.561 170.707C147.601 177.83 147.627 184.952 147.636 192.075C147.641 195.845 147.653 199.614 147.682 203.384C147.71 206.936 147.718 210.488 147.712 214.041C147.714 215.957 147.735 217.874 147.757 219.79C147.72 227.547 147.016 233.4 141.506 239.291C135.897 242.78 130.779 243.574 124.26 242.416C118.596 240.355 115.772 237.418 113.119 231.954C111.372 226.794 111.743 221.414 111.805 216.023C111.807 214.682 111.806 213.341 111.804 212C111.803 208.381 111.826 204.762 111.854 201.143C111.879 197.352 111.881 193.562 111.886 189.772C111.898 182.604 111.931 175.436 111.971 168.268C112.016 160.103 112.038 151.939 112.058 143.774C112.1 126.988 112.173 110.202 112.26 93.416Z" fill="#F82226"/>
<path d="M2.25996 0.41684C4.9859 0.0358887 4.9859 0.0358887 8.498 0.028656C9.80953 0.0191995 11.1211 0.00974304 12.4723 0C13.9107 0.00537007 15.349 0.0115231 16.7873 0.0184021C18.257 0.0163819 19.7267 0.0134709 21.1964 0.00970459C24.2791 0.00527732 27.3616 0.011724 30.4443 0.0257263C34.3968 0.0428038 38.3487 0.0329892 42.3012 0.0150089C45.3372 0.00416893 48.3731 0.00761861 51.4092 0.0153923C52.8664 0.0173945 54.3237 0.0149343 55.781 0.00795364C57.8182 0.000338214 59.8554 0.0140029 61.8925 0.028656C63.0523 0.0310428 64.2121 0.0334296 65.407 0.0358887C68.6482 0.468683 69.2962 0.907906 71.26 3.41684C71.5715 6.47078 71.6974 9.32433 71.6923 12.3814C71.7025 13.3098 71.7127 14.2381 71.7232 15.1946C71.7536 18.3195 71.7626 21.4441 71.7717 24.5692C71.7888 26.8052 71.8072 29.0412 71.8268 31.2772C71.8758 37.3651 71.9054 43.4528 71.9305 49.5408C71.9531 54.6238 71.9847 59.7066 72.0162 64.7895C72.0943 77.4903 72.1527 90.1911 72.2003 102.892C72.2394 113.27 72.294 123.649 72.3586 134.027C72.4337 146.131 72.4927 158.235 72.5316 170.34C72.5522 176.755 72.5785 183.169 72.6197 189.584C72.6577 195.624 72.6759 201.664 72.6791 207.704C72.6835 209.919 72.6946 212.133 72.7132 214.348C72.7376 217.379 72.7368 220.41 72.7299 223.442C72.7427 224.312 72.7556 225.182 72.7688 226.078C72.6884 235.614 69.188 243.464 62.6857 250.37C53.1078 258.452 42.4945 260.259 30.4133 259.639C21.7604 258.746 13.8676 253.935 8.25996 247.417C2.28336 238.658 0.949014 230.768 0.845896 220.331C0.816643 218.398 0.816643 218.398 0.786798 216.427C0.733165 212.752 0.694056 209.077 0.658461 205.401C0.634888 203.035 0.608044 200.668 0.580362 198.302C0.137975 159.764 0.121746 121.22 0.0820203 82.6794C0.0753679 76.5282 0.0641808 70.377 0.0514011 64.2257C0.0358921 56.6216 0.0282225 49.0175 0.0301077 41.4133C0.0309757 37.455 0.0286675 33.4967 0.0181046 29.5384C0.00848912 25.8663 0.00825262 22.1945 0.0154889 18.5224C0.0169979 16.5418 0.00863498 14.5611 0 12.5804C0.00419764 11.4088 0.00839527 10.2371 0.0127201 9.02997C0.0121753 8.01184 0.0116306 6.99372 0.0110693 5.94474C0.259958 3.41684 0.259958 3.41684 2.25996 0.41684ZM8.25996 7.41684C8.23699 26.5823 8.21874 45.7478 8.20815 64.9132C8.20309 73.821 8.19621 82.7288 8.18452 91.6366C8.13938 126.947 8.12625 162.258 8.52769 197.567C8.56119 200.531 8.58834 203.496 8.60967 206.461C8.63957 210.525 8.69352 214.588 8.75044 218.652C8.75663 219.837 8.76283 221.022 8.76921 222.242C8.92009 230.704 9.90853 238.228 16.26 244.417C25.6529 250.751 33.0283 252.246 44.26 251.417C50.7908 249.727 56.9159 246.078 60.6017 240.321C63.9968 233.965 64.9693 228.976 64.8435 221.825C64.8458 220.808 64.8481 219.791 64.8505 218.744C64.852 215.371 64.8178 212 64.7834 208.628C64.7769 206.211 64.7726 203.794 64.7702 201.377C64.7588 195.539 64.7242 189.702 64.6786 183.864C64.627 177.099 64.6038 170.335 64.5814 163.571C64.5244 146.868 64.4063 130.166 64.2758 113.464C64.2498 110.104 64.2247 106.744 64.1995 103.383C63.9579 71.3937 63.6383 39.4053 63.26 7.41684C45.11 7.41684 26.96 7.41684 8.25996 7.41684Z" fill="#233E69"/>
<path d="M186.26 0.41684C188.986 0.0358887 188.986 0.0358887 192.498 0.028656C193.81 0.0191995 195.121 0.00974304 196.472 0C197.911 0.00537007 199.349 0.0115231 200.787 0.0184021C202.257 0.0163819 203.727 0.0134709 205.196 0.00970459C208.279 0.00527732 211.362 0.011724 214.444 0.0257263C218.397 0.0428038 222.349 0.0329892 226.301 0.0150089C229.337 0.00416893 232.373 0.00761861 235.409 0.0153923C236.866 0.0173945 238.324 0.0149343 239.781 0.00795364C241.818 0.000338214 243.855 0.0140029 245.893 0.028656C247.052 0.0310428 248.212 0.0334296 249.407 0.0358887C252.655 0.469587 253.312 0.879791 255.26 3.41684C255.645 5.46327 255.645 5.46327 255.659 7.86122C255.671 8.77501 255.684 9.68879 255.697 10.6303C255.695 12.1366 255.695 12.1366 255.692 13.6734C255.703 14.7378 255.713 15.8022 255.723 16.8988C255.754 20.4713 255.763 24.0435 255.772 27.6161C255.789 30.1548 255.807 32.6936 255.827 35.2323C255.871 41.3853 255.9 47.5382 255.923 53.6914C255.941 58.669 255.965 63.6465 255.992 68.624C255.996 69.3298 256 70.0356 256.004 70.7628C256.012 72.1932 256.02 73.6237 256.028 75.0541C256.1 88.1711 256.154 101.288 256.2 114.405C256.242 126.031 256.307 137.656 256.384 149.282C256.448 159.007 256.496 168.732 256.532 178.457C256.552 184.104 256.578 189.752 256.62 195.399C256.658 200.668 256.676 205.936 256.679 211.204C256.683 213.115 256.695 215.025 256.713 216.935C256.837 230.107 256.15 240.317 246.686 250.37C237.108 258.452 226.494 260.259 214.413 259.639C205.76 258.746 197.868 253.935 192.26 247.417C187.784 240.858 185.042 234.227 184.941 226.218C184.921 224.976 184.901 223.734 184.881 222.455C184.869 221.07 184.857 219.685 184.846 218.3C184.827 216.796 184.807 215.293 184.787 213.79C184.734 209.597 184.694 205.405 184.658 201.212C184.635 198.538 184.608 195.863 184.58 193.189C184.187 154.7 184.124 116.208 184.082 77.7179C184.075 71.9281 184.064 66.1383 184.051 60.3485C184.036 53.2085 184.028 46.0685 184.03 38.9285C184.031 35.2235 184.029 31.5185 184.018 27.8135C184.007 23.7514 184.011 19.6894 184.017 15.6273C184.011 14.4249 184.006 13.2226 184 11.9838C184.004 10.891 184.008 9.79829 184.013 8.67242C184.012 7.72368 184.012 6.77494 184.011 5.79745C184.26 3.41684 184.26 3.41684 186.26 0.41684ZM192.26 7.41684C192.237 25.9917 192.219 44.5665 192.208 63.1414C192.203 71.7755 192.196 80.4097 192.185 89.0438C192.155 111.651 192.166 134.258 192.251 156.865C192.26 159.447 192.269 162.029 192.278 164.612C192.314 174.778 192.377 184.943 192.473 195.109C192.502 198.264 192.522 201.419 192.534 204.575C192.549 208.244 192.582 211.912 192.631 215.581C192.652 217.545 192.654 219.51 192.656 221.475C192.797 230.061 194.037 237.978 200.447 244.229C207.814 250.898 214.823 252.089 224.662 251.804C232.144 250.999 238.05 247.864 243.26 242.417C247.624 235.601 248.984 229.827 248.843 221.825C248.846 220.808 248.848 219.791 248.85 218.744C248.852 215.371 248.818 212 248.783 208.628C248.777 206.211 248.773 203.794 248.77 201.377C248.759 195.539 248.724 189.702 248.679 183.864C248.627 177.099 248.604 170.335 248.581 163.571C248.524 146.868 248.406 130.166 248.276 113.464C248.25 110.104 248.225 106.744 248.2 103.383C247.958 71.3937 247.638 39.4053 247.26 7.41684C229.11 7.41684 210.96 7.41684 192.26 7.41684Z" fill="#223D69"/>
<path d="M102.519 0.028656C104.457 0.0144713 104.457 0.0144713 106.433 0C107.844 0.00536969 109.255 0.0115226 110.666 0.0184021C112.112 0.0163812 113.558 0.0134697 115.003 0.00970459C118.033 0.00528171 121.063 0.0117108 124.092 0.0257263C127.976 0.0428186 131.86 0.0329771 135.744 0.0150089C138.729 0.00416991 141.715 0.0076179 144.7 0.0153923C146.132 0.017394 147.564 0.0149361 148.996 0.00795365C150.998 0.00033816 152.999 0.014003 155 0.028656C156.139 0.0310428 157.278 0.0334296 158.451 0.0358887C161.26 0.41684 161.26 0.41684 163.12 1.43394C164.952 4.62105 164.731 7.95032 164.752 11.5313C164.776 12.8089 164.776 12.8089 164.801 14.1122C164.853 17.0223 164.883 19.9322 164.912 22.8426C164.944 24.962 164.976 27.0813 165.01 29.2006C165.109 35.9253 165.179 42.6502 165.241 49.3753C165.26 51.4587 165.28 53.542 165.3 55.6254C165.507 77.0972 165.651 98.5693 165.777 120.042C165.822 127.644 165.871 135.247 165.92 142.849C165.969 150.267 166.015 157.684 166.061 165.102C166.076 167.414 166.09 169.726 166.105 172.038C166.114 173.523 166.124 175.008 166.133 176.493C166.137 177.216 166.142 177.94 166.147 178.685C166.168 182.217 166.187 185.748 166.2 189.28C166.206 190.643 166.211 192.007 166.216 193.371C166.219 194.036 166.221 194.702 166.224 195.388C166.242 199.455 166.285 203.521 166.347 207.587C166.394 210.863 166.424 214.138 166.459 217.414C166.483 218.583 166.508 219.752 166.533 220.956C166.621 232.073 164.497 240.431 157.072 248.917C147.552 257.38 138.975 260.038 126.217 259.737C120.933 259.309 116.87 257.965 112.26 255.417C111.208 254.839 110.156 254.262 109.072 253.667C100.88 247.113 95.7174 239.519 94.47 229C94.0078 223.322 94.0782 217.621 94.0544 211.929C94.0448 210.465 94.0348 209.001 94.0244 207.537C93.9974 203.56 93.9763 199.583 93.9564 195.607C93.9342 191.372 93.9069 187.138 93.8803 182.904C93.836 175.735 93.7953 168.566 93.757 161.397C93.7184 154.177 93.677 146.957 93.632 139.738C93.6266 138.864 93.6211 137.99 93.6155 137.089C93.6101 136.217 93.6047 135.344 93.5991 134.445C93.4911 117.093 93.3997 99.7405 93.328 82.388C93.29 73.315 93.2408 64.2422 93.1758 55.1693C93.1325 49.0517 93.0995 42.934 93.0749 36.8162C93.0604 33.2914 93.0408 29.7667 93.0082 26.2419C92.9731 22.4252 92.9611 18.6087 92.9514 14.7918C92.9302 13.1109 92.9302 13.1109 92.9087 11.3959C92.9098 10.3793 92.911 9.36269 92.9122 8.31528C92.9068 7.43533 92.9015 6.55538 92.896 5.64877C93.8009 0.0957074 97.6059 0.0389524 102.519 0.028656ZM101.26 7.41684C101.12 53.3133 101.255 99.2104 101.497 145.106C101.541 153.409 101.58 161.711 101.606 170.014C101.629 177.21 101.662 184.407 101.708 191.604C101.732 195.343 101.751 199.082 101.757 202.821C101.765 206.94 101.795 211.058 101.827 215.177C101.826 216.378 101.824 217.578 101.823 218.815C101.935 228.835 103.216 237.294 110.287 244.725C117.377 250.804 125.292 251.962 134.389 251.753C142.844 251.019 148.337 247.052 153.787 240.772C157.814 234.332 158.693 228.551 158.568 221.14C158.565 220.227 158.562 219.315 158.559 218.374C158.545 215.298 158.51 212.223 158.475 209.147C158.46 206.908 158.447 204.669 158.436 202.43C158.407 197.473 158.37 192.517 158.326 187.56C158.258 179.719 158.217 171.879 158.181 164.038C158.111 148.887 158.021 133.737 157.92 118.586C157.909 116.943 157.898 115.299 157.887 113.655C157.882 112.84 157.876 112.024 157.871 111.184C157.827 104.504 157.787 97.824 157.748 91.144C157.709 84.5685 157.667 77.9931 157.623 71.4177C157.597 67.5466 157.572 63.6756 157.551 59.8045C157.531 56.1849 157.506 52.5654 157.479 48.9459C157.466 47.0402 157.457 45.1344 157.448 43.2287C157.35 31.2619 156.759 19.3996 156.26 7.41684C138.11 7.41684 119.96 7.41684 101.26 7.41684Z" fill="#233D69"/>
<path d="M19.2599 139.416C30.4799 139.416 41.6999 139.416 53.2599 139.416C53.3504 151.421 53.4237 163.425 53.4672 175.43C53.488 181.005 53.5163 186.58 53.5617 192.154C53.6052 197.536 53.6291 202.917 53.6394 208.299C53.6468 210.35 53.6612 212.401 53.6828 214.453C53.712 217.33 53.7159 220.207 53.714 223.084C53.7356 224.351 53.7356 224.351 53.7576 225.643C53.7178 231.38 52.5964 234.713 49.2599 239.416C44.8402 242.967 39.9483 244.687 34.2599 244.416C27.2852 242.956 23.1924 239.315 19.2599 233.416C19.075 230.395 19.0078 227.467 19.0329 224.447C19.0326 223.529 19.0323 222.612 19.032 221.667C19.0334 218.631 19.0489 215.596 19.0646 212.561C19.0683 210.457 19.0712 208.354 19.0732 206.251C19.0808 200.712 19.1005 195.174 19.1226 189.635C19.143 183.985 19.1522 178.334 19.1623 172.684C19.1837 161.594 19.2189 150.505 19.2599 139.416Z" fill="#F92226"/>
<path d="M113.26 94.416C113.59 94.416 113.92 94.416 114.26 94.416C114.264 95.1132 114.268 95.8105 114.273 96.5288C114.376 113.488 114.485 130.447 114.599 147.405C114.655 155.606 114.708 163.808 114.757 172.009C114.8 179.156 114.846 186.304 114.897 193.451C114.923 197.236 114.948 201.021 114.969 204.806C114.989 208.369 115.013 211.931 115.04 215.493C115.054 217.425 115.063 219.356 115.072 221.288C115.082 222.437 115.092 223.587 115.102 224.772C115.108 225.771 115.115 226.77 115.121 227.8C115.246 230.157 115.589 232.161 116.26 234.416C116.92 234.416 117.58 234.416 118.26 234.416C119.25 236.891 119.25 236.891 120.26 239.416C116.388 237.947 115.085 236.082 113.26 232.416C112.891 229.646 112.891 229.646 112.899 226.576C112.895 225.408 112.891 224.24 112.887 223.036C112.903 221.128 112.903 221.128 112.919 219.18C112.92 217.82 112.92 216.46 112.918 215.099C112.917 211.414 112.935 207.728 112.956 204.043C112.975 200.188 112.976 196.334 112.98 192.48C112.989 185.184 113.014 177.889 113.044 170.593C113.077 162.286 113.094 153.979 113.109 145.672C113.14 128.586 113.193 111.501 113.26 94.416Z" fill="#E6292B"/>
<path d="M113.26 227.416C116.26 231.041 116.26 231.041 116.26 234.416C116.92 234.416 117.58 234.416 118.26 234.416C118.92 236.066 119.58 237.716 120.26 239.416C116.427 237.962 114.977 236.108 113.26 232.416C113.072 229.604 113.072 229.604 113.26 227.416Z" fill="#DF2E33"/>
</svg>
